PathFileType	4	(X/Y/Z)	Patient4_TMGait_0pt5_01_left_13.trc.trc
DataRate	CameraRate	NumFrames	NumMarkers	Units	OrigDataRate	OrigDataStartFrame	OrigNumFrames
73.684210526316	73.684210526316	6	33	mm	73.684210526316	89	       141
Frame#	Time	L.ASIS			Sacral			L.Shoulder			Chest			R.Shoulder			Neck			R.ASIS			R.Thigh.Superior			R.Thigh.Lateral			R.Thigh.Inferior			R.Patella			L.Thigh.Superior			L.Thigh.Lateral			L.Thigh.Inferior			L.Patella			L.Shank.Superior			L.Shank.Lateral			L.Shank.Inferior			R.Shank.Superior			R.Shank.Lateral			R.Shank.Inferior			R.Heel			R.Midfoot.Superior			R.Midfoot.Lateral			R.Toe			L.Heel			L.Midfoot.Lateral			L.Midfoot.Superior			L.Toe			L.Elbow			L.Wrist			R.Elbow			R.Wrist			
		X1	Y1	Z1	X2	Y2	Z2	X3	Y3	Z3	X4	Y4	Z4	X5	Y5	Z5	X6	Y6	Z6	X7	Y7	Z7	X8	Y8	Z8	X9	Y9	Z9	X10	Y10	Z10	X11	Y11	Z11	X12	Y12	Z12	X13	Y13	Z13	X14	Y14	Z14	X15	Y15	Z15	X16	Y16	Z16	X17	Y17	Z17	X18	Y18	Z18	X19	Y19	Z19	X20	Y20	Z20	X21	Y21	Z21	X22	Y22	Z22	X23	Y23	Z23	X24	Y24	Z24	X25	Y25	Z25	X26	Y26	Z26	X27	Y27	Z27	X28	Y28	Z28	X29	Y29	Z29	X30	Y30	Z30	X31	Y31	Z31	X32	Y32	Z32	X33	Y33	Z33	

89	18.524285714286	800.527090989739	955.967090399612	343.105015808910	582.438685440534	993.988131082593	493.576470931339	746.822470880542	1433.868106736445	331.595659678651	844.325341294375	1360.603933091998	494.973322181473	750.111154565730	1424.327723161512	668.658487204737	739.918503647567	1490.084890227691	484.881365368745	809.094275188097	935.037514778709	617.168789065392	875.287833893063	747.792554457758	586.328827014506	807.308960964534	631.063925235792	643.182048056013	893.575386822493	587.755806798963	565.286354515523	906.095132728041	496.068102627314	571.826325491347	834.010107573766	732.399222639727	367.932744216053	741.911271500608	621.744926374048	303.235168060093	820.384166225638	534.271731593439	364.543623011999	809.159450095480	449.468252476905	363.522242185499	742.718685618763	391.524595858922	356.194801911999	605.822331128735	342.465925625172	304.017197209720	594.174923565260	216.265350024146	363.851548544330	877.214790272457	405.258689027646	577.843850871563	805.832525204022	300.511450834865	637.461989048297	849.838358607300	206.240153372709	576.013189864618	717.507241486666	42.469827860081	542.904312688856	887.206140092522	97.784270545240	583.269433382872	798.654328743963	36.414093788301	620.423642142583	1006.618000108271	46.526215411783	614.998816087250	405.577332134471	136.520572380137	397.923594682042	470.069654806554	99.425255385302	319.540915585969	571.106544318640	120.625468602616	343.462737856354	662.488446608966	32.595249968871	318.495561126023	752.916465192224	1084.469918918334	196.719694197785	963.251910893888	930.317737455982	184.028152438551	665.145260458145	1081.352436120961	762.463457194134	704.204142600238	823.000389869394	756.748415906116	
90	18.537857142857	799.064177983131	957.053152372441	345.222034190503	582.042280723227	995.298468858651	497.375694020670	745.090434385637	1435.286228238440	334.725087793651	844.373291193736	1361.555498426349	496.858645477470	752.190653796416	1424.945372024327	671.624846181853	739.810436207278	1491.124757827237	488.236923091732	809.552779073386	936.024258460377	619.106417530849	873.308581107142	746.835707402611	589.097021037862	803.665244779138	631.151910453615	645.250317502347	889.222300188807	587.038286408529	567.074659793160	900.541614365526	495.490781924476	573.125527871655	838.489545280393	735.851121499627	370.306879667627	751.264553597920	622.646184639123	304.730332850548	832.889596990044	537.160953105805	365.794384734162	823.149525460616	450.995503272667	363.913102600830	754.731726125048	393.119086477592	356.809346282324	615.706054204866	349.159493505443	305.307147846907	600.283866223829	222.994708662243	364.454389327378	871.405854824816	404.949716979471	579.057840392998	799.903288612366	300.251481178814	638.462088921780	843.461436864429	206.054659039552	576.589538169169	710.803114912810	42.445482991096	543.120765942346	880.521347347468	97.753843972914	583.527939327327	791.929066216970	36.370409602382	620.596827100462	999.929545459948	46.338689538689	615.196779706417	408.547041433392	152.064341268620	398.813811692707	470.950332232279	111.417509806897	320.250771413588	573.436322616466	126.806381050537	343.927697600023	659.159822186013	32.332299211505	318.773684839769	748.236645550415	1085.029225350568	201.678785534106	950.399845945046	919.660144558397	189.629546111913	675.393170192182	1079.916971894010	767.208289885547	726.126991619957	823.608120600047	760.738197937879	
91	18.551428571429	797.391698062658	958.032546102178	347.182594390337	581.416538983423	996.573413455393	501.077659699580	743.210830813337	1436.567247499297	337.675968703487	844.336703223721	1362.376926400760	498.504539961432	754.301167075125	1425.484350382886	674.367415446990	739.679875838976	1492.079161035802	491.396998634082	809.774729865477	936.936393410294	620.939403984975	871.027761684064	745.920446828081	591.635878574779	799.854717721002	631.246462278923	647.268180002418	884.643013971926	586.346862458267	568.763417509984	894.753723540386	494.948638245650	574.397974169424	842.620912236410	739.593938896513	372.545403562399	760.285539691321	624.070578489759	305.928280293623	844.914200327824	540.704652806028	366.729505210238	836.860001147886	453.304525518777	364.079921121660	766.855739690945	395.300373067343	357.204208630159	626.017436370875	355.793993872726	306.452154864743	607.370175387213	229.705949581783	365.054551319997	865.415177496238	404.669666708922	580.252736194309	793.839354111026	299.994450444480	639.463921069585	837.004913255404	205.885444795600	577.161082221707	704.046958211160	42.434284215504	543.329168063533	873.813339383783	97.690021838012	583.763147656633	785.158247609978	36.324397117346	620.760415706416	993.206819860697	46.081831679177	615.368404963844	413.098979759165	166.522925522372	399.849895683123	473.561462720536	122.879333623488	321.056157515709	577.217566095811	133.105332541431	344.488617465405	657.857167712073	32.444933825207	318.984498074147	743.393819910714	1085.487620171958	206.507663226936	936.487218554591	909.038817760993	195.123371011120	686.034372121601	1078.682361473934	771.926842829514	748.804649447070	825.051277650844	764.640037866424	
92	18.565000000000	795.538958829522	958.934374117698	348.998013087517	580.595766488205	997.793312917169	504.672364143581	741.237241008181	1437.704944902292	340.439454197803	844.220081045301	1363.075853467617	499.935113315484	756.399593002997	1425.969009697641	676.890611794971	739.548956227783	1492.953181796048	494.338877250934	809.783971562832	937.772322602171	622.675930911337	868.513087546067	745.087063224064	593.899840624058	795.952010180557	631.354498132917	649.207679148559	879.917773415277	585.688020797575	570.332454163954	888.812617545667	494.445573895671	575.616650232300	846.324638605621	743.598673970636	374.608041091621	768.756301721772	626.026613348168	306.858880034666	856.243439112561	544.875066920547	367.316455958346	850.068133573736	456.391556376941	363.984781774166	778.913955059427	398.040432104898	357.359542172680	636.596335962897	362.096538530973	307.419544833488	615.479566151640	236.052070913185	365.593690645374	859.316686190971	404.419144894424	581.404443255296	787.692004759225	299.755412512322	640.444532578623	830.502210836526	205.735104220726	577.715665804318	697.244708025424	42.439241075247	543.526919470098	867.083706768461	97.603259435988	583.976902397653	778.348741021020	36.281554157896	620.915587655077	986.453805246166	45.784129257906	615.516808818830	419.332229863369	179.066609560494	400.966858918514	478.133350765074	133.106274491269	321.896429804305	582.685106239178	139.133877532380	345.058743130260	659.141948237647	32.965769263980	319.065357702829	738.328902597258	1085.827908165371	211.223652427494	921.493945956821	898.615169799268	200.449080678839	697.057742438200	1077.679786095298	776.566465130628	772.136340017053	827.414564244256	768.356243045317	
93	18.578571428571	793.529052831415	959.804196046041	350.686733456660	579.620476142621	998.953266968606	508.157014320055	739.222032166922	1438.708563830698	343.014349113386	844.032181042196	1363.672616670982	501.179672126559	758.453033381090	1426.435710748126	679.205879777456	739.437977636392	1493.761547014312	497.048753994069	809.607725347508	938.533647976263	624.319565996680	865.819949071905	744.355659029197	595.869739549804	791.993270616946	631.479290181813	651.039133989740	875.093676206998	585.061542544316	571.769277659753	882.764769719467	493.983631895327	576.753455213736	849.548361040319	747.828690791247	376.458185208433	776.506201554210	628.488628125108	307.567235492408	866.716258646395	549.610929635293	367.553049051937	862.590924399531	460.221493387991	363.624700634787	790.767020390386	401.281480599904	357.278217172441	647.324557137481	367.781834974135	308.180495914673	624.687335607393	241.681894013168	366.009750357392	853.155034306969	404.200521406508	582.489173010841	781.487453658406	299.547101382907	641.377008902337	823.973702075420	205.608734680103	578.241863251926	690.405837833116	42.460390702522	543.710118066611	860.335526921917	97.505461174982	584.170547306890	771.510500767972	36.245582739002	621.061515434048	979.676447929270	45.476703784012	615.645601966996	427.350043318937	188.941111734710	402.075307983555	484.883612129196	141.435901612171	322.686963446527	590.080196293797	144.480842493291	345.536889018866	663.532943798063	33.862174662422	318.943012144644	732.979593970374	1086.058235228938	215.842974788426	905.417977078757	888.556608223352	205.552350532034	708.440505601839	1076.954908243878	781.075435576384	796.013825020351	830.793628901084	771.778212457128	
94	18.592142857143	791.377653189711	960.691636483869	352.270996794780	578.533107010246	1000.058956020174	511.532841920262	737.211621043730	1439.596872019009	345.406466714585	843.785675210355	1364.192748658213	502.268355340990	760.442510213034	1426.923001026739	681.327599732064	739.363581675075	1494.522774670658	499.522658827584	809.273726075322	939.221087127364	625.869834005669	862.988792960464	743.726756450063	597.545014837799	787.987580377561	631.622040922764	652.734274009717	870.189388051578	584.462310250644	573.065063190131	876.628283850664	493.562991445029	577.781920831235	852.266096680530	752.237908492793	378.069208778582	783.420027391451	631.397428629264	308.108848196852	876.221325195473	554.818157390327	367.475107664095	874.283700805013	464.727335602615	363.039884475732	802.309945401433	404.939177365074	356.989528596266	658.127459430954	372.577780695784	308.714989031892	635.082385478389	246.275888749226	366.244193925406	846.950534843282	404.016292086509	583.485207865361	775.233007944782	299.378447682537	642.235037415077	817.428951378173	205.511751506085	578.729007303272	683.540679865603	42.495032876418	543.873775948142	853.572516363196	97.407481153334	584.344139467084	764.653948192088	36.218484730193	621.195714355522	972.880909191099	45.187560711365	615.757868312235	437.257840984405	195.540682090365	403.068070400384	494.001837909233	147.320308629055	323.325286299534	599.622624887136	148.762303511918	345.818529304009	671.446714924070	35.036520449329	318.537200282693	727.288724593986	1086.207616357165	220.374379548189	888.283810668490	879.029830081681	210.387113243624	720.144033815079	1076.559528959428	785.405562403419	820.316582873822	835.287831282198	774.795405756322	
